<svg width="115" height="70" viewBox="0 0 115 70" fill="none" xmlns="http://www.w3.org/2000/svg">
<g filter="url(#filter0_f_125_368)">
<path d="M27.6172 41.9141V40.4199L32.373 35.4883C32.9915 34.8503 33.4733 34.3229 33.8184 33.9062C34.1634 33.4831 34.401 33.1055 34.5312 32.7734C34.668 32.4414 34.7363 32.0866 34.7363 31.709V31.6895C34.7363 31.2272 34.6354 30.8203 34.4336 30.4688C34.2318 30.1107 33.9453 29.8307 33.5742 29.6289C33.2096 29.4206 32.7734 29.3164 32.2656 29.3164C31.7383 29.3164 31.2728 29.4271 30.8691 29.6484C30.4655 29.8633 30.1497 30.1628 29.9219 30.5469C29.694 30.931 29.5801 31.377 29.5801 31.8848L29.5703 31.9238L27.5098 31.9141L27.5 31.8848C27.5 31.0319 27.7083 30.2767 28.125 29.6191C28.5417 28.9551 29.1146 28.4375 29.8438 28.0664C30.5794 27.6888 31.416 27.5 32.3535 27.5C33.2324 27.5 34.0169 27.6725 34.707 28.0176C35.3971 28.3626 35.9408 28.8379 36.3379 29.4434C36.735 30.0423 36.9336 30.7292 36.9336 31.5039V31.5234C36.9336 32.0573 36.8359 32.5716 36.6406 33.0664C36.4453 33.5612 36.1068 34.1081 35.625 34.707C35.1497 35.2995 34.4857 36.0189 33.6328 36.8652L29.9902 40.4883L30.6055 39.4043V40.4883L30 40.0488H37.1582V41.9141H27.6172ZM41.1523 42.0605C40.7617 42.0605 40.4297 41.9271 40.1562 41.6602C39.8893 41.3867 39.7559 41.0579 39.7559 40.6738C39.7559 40.2832 39.8893 39.9544 40.1562 39.6875C40.4297 39.4141 40.7617 39.2773 41.1523 39.2773C41.5495 39.2773 41.8815 39.4141 42.1484 39.6875C42.4154 39.9544 42.5488 40.2832 42.5488 40.6738C42.5488 41.0579 42.4154 41.3867 42.1484 41.6602C41.8815 41.9271 41.5495 42.0605 41.1523 42.0605ZM51.6797 41.9141V39.1211H44.7656V37.2363C45.1432 36.6048 45.5273 35.9701 45.918 35.332C46.3086 34.6875 46.6992 34.0462 47.0898 33.4082C47.487 32.7702 47.8841 32.1387 48.2812 31.5137C48.6784 30.8822 49.0755 30.2572 49.4727 29.6387C49.8698 29.0202 50.2637 28.4147 50.6543 27.8223H53.7988V37.2559H55.7422V39.1211H53.7988V41.9141H51.6797ZM46.8555 37.2949H51.709V29.6484H51.5918C51.2858 30.1172 50.9733 30.599 50.6543 31.0938C50.3353 31.582 50.013 32.0801 49.6875 32.5879C49.3685 33.0957 49.0462 33.6068 48.7207 34.1211C48.4017 34.6354 48.0859 35.1497 47.7734 35.6641C47.4609 36.1719 47.1549 36.6764 46.8555 37.1777V37.2949ZM63.2422 42.168C62.194 42.168 61.2695 41.9954 60.4688 41.6504C59.668 41.3053 59.0397 40.8268 58.584 40.2148C58.1283 39.6029 57.9004 38.8997 57.9004 38.1055V38.0859C57.9004 37.4935 58.0339 36.9499 58.3008 36.4551C58.5677 35.9603 58.9355 35.5436 59.4043 35.2051C59.873 34.86 60.4134 34.6224 61.0254 34.4922V34.4434C60.2376 34.2155 59.6061 33.8249 59.1309 33.2715C58.6556 32.7181 58.418 32.0671 58.418 31.3184V31.2988C58.418 30.5827 58.623 29.9447 59.0332 29.3848C59.4499 28.8184 60.0195 28.3757 60.7422 28.0566C61.4714 27.7311 62.3047 27.5684 63.2422 27.5684C64.1797 27.5684 65.0098 27.7311 65.7324 28.0566C66.4616 28.3757 67.0312 28.8184 67.4414 29.3848C67.8581 29.9447 68.0664 30.5827 68.0664 31.2988V31.3184C68.0664 32.0671 67.8288 32.7181 67.3535 33.2715C66.8783 33.8249 66.2467 34.2155 65.459 34.4434V34.4922C66.071 34.6224 66.6113 34.86 67.0801 35.2051C67.5488 35.5436 67.9134 35.9603 68.1738 36.4551C68.4408 36.9499 68.5742 37.4935 68.5742 38.0859V38.1055C68.5742 38.8997 68.3464 39.6029 67.8906 40.2148C67.4414 40.8268 66.8132 41.3053 66.0059 41.6504C65.2051 41.9954 64.2839 42.168 63.2422 42.168ZM63.2422 40.4102C63.8411 40.4102 64.3717 40.306 64.834 40.0977C65.2962 39.8893 65.6576 39.5996 65.918 39.2285C66.1849 38.8574 66.3184 38.4342 66.3184 37.959V37.9395C66.3184 37.4577 66.1882 37.0312 65.9277 36.6602C65.6673 36.2891 65.3027 35.9993 64.834 35.791C64.3717 35.5762 63.8411 35.4688 63.2422 35.4688C62.6367 35.4688 62.1029 35.5762 61.6406 35.791C61.1784 35.9993 60.8171 36.2891 60.5566 36.6602C60.2962 37.0312 60.166 37.4577 60.166 37.9395V37.959C60.166 38.4342 60.2962 38.8574 60.5566 39.2285C60.8236 39.5996 61.1882 39.8893 61.6504 40.0977C62.1126 40.306 62.6432 40.4102 63.2422 40.4102ZM63.2422 33.7012C63.763 33.7012 64.222 33.61 64.6191 33.4277C65.0163 33.2389 65.3255 32.9818 65.5469 32.6562C65.7747 32.3242 65.8887 31.9434 65.8887 31.5137V31.4941C65.8887 31.0645 65.7747 30.6868 65.5469 30.3613C65.3255 30.0293 65.0163 29.7721 64.6191 29.5898C64.222 29.401 63.763 29.3066 63.2422 29.3066C62.7214 29.3066 62.2591 29.401 61.8555 29.5898C61.4583 29.7721 61.1491 30.0293 60.9277 30.3613C60.7064 30.6868 60.5957 31.0645 60.5957 31.4941V31.5137C60.5957 31.9434 60.7064 32.3242 60.9277 32.6562C61.1491 32.9818 61.4583 33.2389 61.8555 33.4277C62.2526 33.61 62.7148 33.7012 63.2422 33.7012ZM73.9648 35.2441C73.3333 35.2441 72.7897 35.0911 72.334 34.7852C71.8848 34.4727 71.5365 34.0332 71.2891 33.4668C71.0482 32.8939 70.9277 32.2201 70.9277 31.4453V31.4355C70.9277 30.6543 71.0482 29.9805 71.2891 29.4141C71.5365 28.8477 71.8848 28.4115 72.334 28.1055C72.7897 27.7995 73.3333 27.6465 73.9648 27.6465C74.5964 27.6465 75.1367 27.7995 75.5859 28.1055C76.0417 28.4115 76.39 28.8477 76.6309 29.4141C76.8783 29.9805 77.002 30.6543 77.002 31.4355V31.4453C77.002 32.2201 76.8783 32.8939 76.6309 33.4668C76.39 34.0332 76.0417 34.4727 75.5859 34.7852C75.1367 35.0911 74.5964 35.2441 73.9648 35.2441ZM73.9648 33.9258C74.4206 33.9258 74.7754 33.7077 75.0293 33.2715C75.2832 32.8353 75.4102 32.2266 75.4102 31.4453V31.4355C75.4102 30.6478 75.2832 30.0391 75.0293 29.6094C74.7754 29.1797 74.4206 28.9648 73.9648 28.9648C73.5091 28.9648 73.1543 29.1797 72.9004 29.6094C72.653 30.0391 72.5293 30.6478 72.5293 31.4355V31.4453C72.5293 32.2266 72.653 32.8353 72.9004 33.2715C73.1543 33.7077 73.5091 33.9258 73.9648 33.9258ZM75.3027 41.9141H73.4766L82.9004 27.8223H84.7168L75.3027 41.9141ZM84.2188 42.0898C83.5872 42.0898 83.0436 41.9368 82.5879 41.6309C82.1387 41.3184 81.7904 40.8789 81.543 40.3125C81.3021 39.7461 81.1816 39.0723 81.1816 38.291V38.2812C81.1816 37.5 81.3021 36.8294 81.543 36.2695C81.7904 35.7031 82.1387 35.2669 82.5879 34.9609C83.0436 34.6484 83.5872 34.4922 84.2188 34.4922C84.8503 34.4922 85.3906 34.6484 85.8398 34.9609C86.2956 35.2669 86.6439 35.7031 86.8848 36.2695C87.1322 36.8294 87.2559 37.5 87.2559 38.2812V38.291C87.2559 39.0723 87.1322 39.7461 86.8848 40.3125C86.6439 40.8789 86.2956 41.3184 85.8398 41.6309C85.3906 41.9368 84.8503 42.0898 84.2188 42.0898ZM84.2188 40.7715C84.6745 40.7715 85.0293 40.5566 85.2832 40.127C85.5371 39.6908 85.6641 39.0788 85.6641 38.291V38.2812C85.6641 37.5 85.5371 36.8945 85.2832 36.4648C85.0293 36.0286 84.6745 35.8105 84.2188 35.8105C83.763 35.8105 83.4082 36.0286 83.1543 36.4648C82.9069 36.8945 82.7832 37.5 82.7832 38.2812V38.291C82.7832 39.0788 82.9069 39.6908 83.1543 40.127C83.4082 40.5566 83.763 40.7715 84.2188 40.7715Z" fill="#01DF83"/>
</g>
<defs>
<filter id="filter0_f_125_368" x="0" y="0" width="114.756" height="69.668" filterUnits="userSpaceOnUse" color-interpolation-filters="sRGB">
<feFlood flood-opacity="0" result="BackgroundImageFix"/>
<feBlend mode="normal" in="SourceGraphic" in2="BackgroundImageFix" result="shape"/>
<feGaussianBlur stdDeviation="13.75" result="effect1_foregroundBlur_125_368"/>
</filter>
</defs>
</svg>
