<svg width="10" height="15" viewBox="0 0 10 15" fill="none" xmlns="http://www.w3.org/2000/svg">
<path d="M5.46484 1.4082C6.23935 1.45655 6.9142 1.60015 7.48926 1.84082C8.2145 2.1365 8.77257 2.56098 9.16309 3.11328C9.55348 3.6599 9.76532 4.30955 9.79883 5.0625L9.78223 5.07129H6.79492L6.78613 5.0625C6.74147 4.78371 6.63828 4.5554 6.47656 4.37695C6.31478 4.19285 6.10302 4.05606 5.84082 3.9668C5.72433 3.92714 5.59896 3.89703 5.46484 3.875V5.8584L6.38477 6.0498C7.60094 6.30643 8.50756 6.69504 9.10449 7.21387C9.70125 7.73263 9.99994 8.47135 10 9.43066V9.44727C10 10.2171 9.78825 10.8761 9.36426 11.4229C8.94592 11.9695 8.35168 12.3877 7.58203 12.6777C6.96684 12.9112 6.26075 13.0492 5.46484 13.0947V14.46H4.54395V13.1074C3.70835 13.0816 2.96895 12.956 2.32617 12.7285C1.60651 12.4663 1.04299 12.0777 0.635742 11.5645C0.234311 11.0513 0.0223604 10.4156 0 9.65723L0.0166016 9.64844H3.02051L3.0293 9.65723C3.07952 9.90248 3.18825 10.1004 3.35547 10.251C3.52282 10.4016 3.73782 10.5102 4 10.5771C4.16533 10.615 4.34672 10.6398 4.54395 10.6543V8.65332L3.61523 8.45996C2.85652 8.29818 2.21163 8.07009 1.68164 7.77441C1.15179 7.47879 0.747663 7.10187 0.46875 6.64453C0.195446 6.18717 0.0586513 5.63203 0.0585938 4.97949V4.96191C0.0586716 4.20341 0.265006 3.55917 0.677734 3.0293C1.09611 2.49378 1.66518 2.08656 2.38477 1.80762C3.02595 1.56101 3.74578 1.42312 4.54395 1.39453V0H5.46484V1.4082ZM5.46484 10.6504C5.62004 10.6393 5.76495 10.624 5.89941 10.6025C6.17835 10.5523 6.39653 10.4655 6.55273 10.3428C6.70857 10.2201 6.78604 10.0502 6.78613 9.83301V9.81543C6.78598 9.4977 6.63603 9.27152 6.33496 9.1377C6.13155 9.04352 5.84121 8.95062 5.46484 8.85645V10.6504ZM4.54395 3.84668C4.34634 3.86104 4.17041 3.88635 4.0166 3.9248C3.77121 3.9806 3.58434 4.07289 3.45605 4.20117C3.33348 4.32384 3.27153 4.48812 3.27148 4.69434V4.71094C3.27148 4.90618 3.342 5.06798 3.48145 5.19629C3.62092 5.3246 3.82722 5.43418 4.10059 5.52344C4.23314 5.56585 4.38116 5.607 4.54395 5.64941V3.84668Z" fill="#163532"/>
</svg>
