<svg width="26" height="16" viewBox="0 0 26 16" fill="none" xmlns="http://www.w3.org/2000/svg">
<path d="M25.4147 6.95274C23.4069 4.36422 21.0119 2.24617 17.9392 0.999481C14.6564 -0.33316 11.026 -0.33316 7.74258 0.999481C4.65605 2.25076 2.05244 4.51776 0.103672 7.18567C0.0649589 7.23947 0.0314952 7.41401 0 7.44682V7.84838C0.0308391 7.87857 0.0643028 8.04982 0.103672 8.10362C2.0531 10.7774 4.65473 13.0418 7.7452 14.297C11.0253 15.6297 14.6538 15.6277 17.9359 14.299C21.0086 13.0543 23.4082 10.931 25.4186 8.34378C25.7677 7.89431 25.7618 7.40023 25.4147 6.95274ZM12.8402 13.0425C9.85998 13.0425 7.44469 10.6265 7.44469 7.64694C7.44469 4.66736 9.85998 2.25142 12.8402 2.25142C15.8204 2.25142 18.2357 4.66671 18.2357 7.64694C18.2357 10.6272 15.8198 13.0425 12.8402 13.0425Z" fill="#F1FDD1"/>
<path d="M15.7477 7.64497C15.7477 9.24926 14.4479 10.5498 12.8436 10.5498C11.2393 10.5498 9.93945 9.24926 9.93945 7.64497C9.93945 6.04068 11.2399 4.74085 12.8436 4.74085C14.4472 4.74085 15.7477 6.04134 15.7477 7.64497Z" fill="#F1FDD1"/>
</svg>
