<svg width="508" height="59" viewBox="0 0 508 59" fill="none" xmlns="http://www.w3.org/2000/svg">
<path d="M335.908 1.26212C325.564 1.26212 323.372 1.29059 323.372 1.29059H310.247C297.094 1.29059 284.463 11.5967 284.463 27.1793V33.3288C284.463 47.0703 296.762 58.7905 310.446 58.7905H335.31C349.317 58.7905 360.905 46.6148 360.905 32.9397V26.98C360.905 14.216 349.517 1.26212 335.908 1.26212ZM352.952 32.2185C352.952 42.5341 343.804 51.7204 332.738 51.7204H313.094C302.294 51.7204 292.577 42.8853 292.577 32.5127V27.8721C292.577 16.1235 302.551 8.35115 312.942 8.35115H323.315C323.315 8.35115 325.042 8.33217 333.203 8.33217C343.955 8.33217 352.952 18.0974 352.952 27.7297V32.2185Z" fill="#F1FDD1"/>
<path d="M454.96 0.787659L446.495 9.53744H499.364L508 0.901539L454.96 0.787659Z" fill="#F1FDD1"/>
<path d="M454.96 26.1829L446.495 34.9327H499.364L508 26.2968L454.96 26.1829Z" fill="#F1FDD1"/>
<path d="M454.96 50.0408L446.495 58.7906H499.364L508 50.1547L454.96 50.0408Z" fill="#F1FDD1"/>
<path d="M365.897 0H426.424L436.996 10.5814V32.285L426.452 42.8284L442.614 58.7906H430.115L414.258 42.9328H375.377V58.7906H365.612V33.3668H422.761L426.746 29.3716V13.1816L422.903 9.33816H365.897V0Z" fill="#F1FDD1"/>
<path d="M208.372 11.369V48.2471L218.916 58.7905H279.756V49.329H222.617L218.622 45.3337V13.9693L222.465 10.1258H279.481V0.787659H218.944L208.372 11.369Z" fill="#F1FDD1"/>
<path d="M14.235 33.3574H62.4347L52.8593 42.9328H16.3513V58.7906H0V10.5719L10.5719 0H71.0991V9.33816H14.0926L10.2492 13.1816V29.3716L14.235 33.3574Z" fill="#F1FDD1"/>
<path d="M209.729 1.30961L198.351 12.6881C198.351 12.6881 192.258 18.7617 191.755 19.2742L190.977 20.0524C190.445 20.5838 189.895 21.1342 189.326 21.7036L185.7 25.3288C185.065 25.9646 184.419 26.6099 183.755 27.2743C183.1 27.9291 182.426 28.5934 181.753 29.2766L152.239 58.7905H141.278V9.56591H134.606C134.606 9.56591 130.649 9.14835 127.603 12.1852L81.3388 58.4489L69.7421 58.4299C69.7421 58.4299 117.932 10.2397 122.345 5.82685C126.758 1.414 130.412 1.30961 134.739 1.30961H149.952V48.6932L193.074 5.57062C197.886 0.75919 201.786 1.30961 205.126 1.30961H209.729Z" fill="#F1FDD1"/>
<path d="M114.829 1.67023H109.515L109.496 1.66074H103.251L99.2562 5.64654C99.0759 5.81736 98.8956 5.98818 98.7152 6.16849C94.3024 10.5813 46.1122 58.7716 46.1122 58.7716H51.4456C51.4456 58.7716 51.4551 58.781 51.4645 58.781H57.709L61.1159 55.3836C61.2772 55.2223 61.429 55.061 61.5904 54.8996C61.6283 54.8712 61.6663 54.8332 61.7042 54.7952C61.7422 54.7573 61.7897 54.7193 61.8371 54.6719C61.97 54.5485 62.1028 54.4156 62.2452 54.2733L114.848 1.67023H114.829ZM100.537 15.9622C100.936 15.5636 101.297 15.1935 101.638 14.8613L100.537 15.9622ZM102.122 14.3773C102.426 14.0642 102.711 13.789 102.948 13.5517L102.122 14.3773Z" fill="#F1FDD1"/>
</svg>
