<svg width="173" height="20" viewBox="0 0 173 20" fill="none" xmlns="http://www.w3.org/2000/svg">
<path d="M114.273 0.429382C110.754 0.429382 110.008 0.439068 110.008 0.439068H105.543C101.069 0.439068 96.7716 3.94512 96.7716 9.24617V11.3382C96.7716 16.0129 100.956 20 105.611 20H114.069C118.835 20 122.776 15.8579 122.776 11.2058V9.17837C122.776 4.83616 118.902 0.429382 114.273 0.429382ZM120.071 10.9605C120.071 14.4697 116.959 17.5948 113.195 17.5948H106.512C102.838 17.5948 99.5319 14.5892 99.5319 11.0605V9.48184C99.5319 5.48507 102.925 2.841 106.46 2.841H109.989C109.989 2.841 110.576 2.83455 113.353 2.83455C117.01 2.83455 120.071 6.15658 120.071 9.43342V10.9605Z" fill="#F1FDD1"/>
<path d="M154.773 0.267954L151.893 3.24455H169.879L172.817 0.306695L154.773 0.267954Z" fill="#F1FDD1"/>
<path d="M154.773 8.90718L151.893 11.8838H169.879L172.817 8.94593L154.773 8.90718Z" fill="#F1FDD1"/>
<path d="M154.773 17.0234L151.893 20H169.879L172.817 17.0621L154.773 17.0234Z" fill="#F1FDD1"/>
<path d="M124.475 0H145.065L148.662 3.59968V10.983L145.075 14.5698L150.573 20H146.321L140.927 14.6053H127.7V20H124.378V11.3511H143.819L145.175 9.99193V4.48426L143.868 3.17676H124.475V0Z" fill="#F1FDD1"/>
<path d="M70.8862 3.86763V16.4132L74.4729 20H95.1703V16.7813H75.732L74.3728 15.4221V4.75221L75.6804 3.44471H95.0766V0.267954H74.4826L70.8862 3.86763Z" fill="#F1FDD1"/>
<path d="M4.84261 11.3479H21.2397L17.9822 14.6053H5.56255V20H0V3.59645L3.59645 0H24.1872V3.17676H4.79419L3.48668 4.48426V9.99193L4.84261 11.3479Z" fill="#F1FDD1"/>
<path d="M71.3479 0.445516L67.477 4.31638C67.477 4.31638 65.4044 6.38256 65.2332 6.55689L64.9685 6.82162C64.7877 7.00242 64.6005 7.18966 64.4068 7.38337L63.1735 8.61662C62.9572 8.83292 62.7377 9.05246 62.5117 9.27844C62.2889 9.5012 62.0597 9.72719 61.8305 9.95964L51.7901 20H48.0613V3.25423H45.7918C45.7918 3.25423 44.4455 3.11218 43.4092 4.14527L27.6707 19.8838L23.7256 19.8773C23.7256 19.8773 40.1194 3.48345 41.6207 1.98224C43.1219 0.481028 44.3648 0.445516 45.837 0.445516H51.0121V16.565L65.682 1.89507C67.3188 0.258268 68.6457 0.445516 69.7821 0.445516H71.3479Z" fill="#F1FDD1"/>
<path d="M39.0637 0.568198H37.2558L37.2494 0.56497H35.1251L33.7659 1.9209C33.7046 1.97901 33.6432 2.03712 33.5819 2.09846C32.0807 3.59968 15.6868 19.9935 15.6868 19.9935H17.5012C17.5012 19.9935 17.5044 19.9968 17.5077 19.9968H19.6319L20.7909 18.841C20.8458 18.7861 20.8975 18.7312 20.9524 18.6763C20.9653 18.6667 20.9782 18.6537 20.9911 18.6408C21.004 18.6279 21.0202 18.615 21.0363 18.5989C21.0815 18.5569 21.1267 18.5117 21.1751 18.4633L39.0702 0.568198H39.0637ZM34.2018 5.43018C34.3374 5.29459 34.46 5.16868 34.5763 5.05569L34.2018 5.43018ZM34.7409 4.89104C34.8442 4.7845 34.9411 4.69088 35.0218 4.61017L34.7409 4.89104Z" fill="#F1FDD1"/>
</svg>
