<svg width="1328" height="154" viewBox="0 0 1328 154" fill="none" xmlns="http://www.w3.org/2000/svg">
<path d="M877.659 3.29776C850.632 3.29776 844.905 3.37215 844.905 3.37215H810.613C776.246 3.37215 743.243 30.3 743.243 71.0141V87.0816C743.243 122.985 775.378 153.608 811.133 153.608H876.097C912.695 153.608 942.971 121.795 942.971 86.0649V70.4934C942.971 37.1435 913.216 3.29776 877.659 3.29776ZM922.192 84.1805C922.192 111.133 898.289 135.135 869.378 135.135H818.051C789.834 135.135 764.443 112.051 764.443 84.9491V72.8242C764.443 42.1274 790.504 21.82 817.655 21.82H844.756C844.756 21.82 849.269 21.7704 870.593 21.7704C898.686 21.7704 922.192 47.2849 922.192 72.4522V84.1805Z" fill="#1E1E1E"/>
<path d="M1188.72 2.05798L1166.6 24.9194H1304.74L1327.3 2.35553L1188.72 2.05798Z" fill="#1E1E1E"/>
<path d="M1188.72 68.4106L1166.6 91.272H1304.74L1327.3 68.7082L1188.72 68.4106Z" fill="#1E1E1E"/>
<path d="M1188.72 130.746L1166.6 153.608H1304.74L1327.3 131.044L1188.72 130.746Z" fill="#1E1E1E"/>
<path d="M956.013 0H1114.16L1141.78 27.6469V84.3541L1114.23 111.902L1156.46 153.608H1123.8L1082.37 112.175H980.784V153.608H955.269V87.1808H1104.59L1115 76.7419V34.4409L1104.96 24.3987H956.013V0Z" fill="#1E1E1E"/>
<path d="M544.434 29.7049V126.06L571.981 153.608H730.945V128.887H581.652L571.213 118.448V36.4989L581.255 26.4567H730.226V2.05798H572.056L544.434 29.7049Z" fill="#1E1E1E"/>
<path d="M37.1932 87.156H163.129L138.111 112.175H42.7225V153.608H0V27.6221L27.6221 0H185.767V24.3987H36.8212L26.7791 34.4409V76.7419L37.1932 87.156Z" fill="#1E1E1E"/>
<path d="M547.979 3.42178L518.249 33.1515C518.249 33.1515 502.331 49.0206 501.017 50.3596L498.983 52.3928C497.595 53.7813 496.157 55.2195 494.669 56.7072L485.197 66.179C483.536 67.8403 481.85 69.5264 480.114 71.2621C478.403 72.973 476.643 74.7087 474.882 76.4939L397.768 153.608H369.13V24.9938H351.699C351.699 24.9938 341.359 23.9028 333.4 31.8374L212.522 152.715L182.222 152.666C182.222 152.666 308.133 26.7543 319.663 15.2244C331.193 3.69453 340.739 3.42178 352.046 3.42178H391.793V127.225L504.463 14.5549C517.035 1.98364 527.225 3.42178 535.953 3.42178H547.979Z" fill="#1E1E1E"/>
<path d="M300.025 4.364H286.139L286.09 4.3392H269.774L259.336 14.7533C258.864 15.1996 258.393 15.6459 257.922 16.117C246.392 27.6469 120.481 153.558 120.481 153.558H134.416C134.416 153.558 134.441 153.583 134.466 153.583H150.781L159.683 144.706C160.104 144.285 160.501 143.863 160.922 143.442C161.022 143.367 161.121 143.268 161.22 143.169C161.319 143.07 161.443 142.971 161.567 142.847C161.914 142.524 162.261 142.177 162.633 141.805L300.074 4.364H300.025ZM262.683 41.7059C263.724 40.6645 264.667 39.6975 265.559 38.8297L262.683 41.7059ZM266.824 37.5651C267.617 36.7468 268.361 36.0278 268.981 35.4079L266.824 37.5651Z" fill="#1E1E1E"/>
</svg>
