<svg width="139" height="16" viewBox="0 0 139 16" fill="none" xmlns="http://www.w3.org/2000/svg">
<path d="M91.4181 0.343506C88.6029 0.343506 88.0063 0.351254 88.0063 0.351254H84.4344C80.8547 0.351254 77.4171 3.15609 77.4171 7.39692V9.07053C77.4171 12.8103 80.7643 16 84.4886 16H91.2553C95.0674 16 98.2209 12.6863 98.2209 8.96463V7.34269C98.2209 3.86892 95.1217 0.343506 91.4181 0.343506ZM96.0566 8.76835C96.0566 11.5758 93.5669 14.0758 90.5554 14.0758H85.2092C82.2701 14.0758 79.6253 11.6713 79.6253 8.84841V7.58546C79.6253 4.38805 82.3398 2.2728 85.1679 2.2728H87.9908C87.9908 2.2728 88.4608 2.26763 90.682 2.26763C93.6082 2.26763 96.0566 4.92526 96.0566 7.54672V8.76835Z" fill="#F1FDD1"/>
<path d="M123.818 0.214355L121.515 2.59563H135.903L138.253 0.245348L123.818 0.214355Z" fill="#F1FDD1"/>
<path d="M123.818 7.12585L121.515 9.50713H135.903L138.253 7.15685L123.818 7.12585Z" fill="#F1FDD1"/>
<path d="M123.818 13.6188L121.515 16H135.903L138.253 13.6498L123.818 13.6188Z" fill="#F1FDD1"/>
<path d="M99.5795 0H116.052L118.929 2.87974V8.78642L116.06 11.6558L120.458 16H117.057L112.741 11.6842H102.16V16H99.502V9.08085H115.055L116.14 7.99353V3.5874L115.094 2.5414H99.5795V0Z" fill="#F1FDD1"/>
<path d="M56.7089 3.09409V13.1306L59.5783 16H76.1361V13.425H60.5855L59.4982 12.3377V3.80176L60.5442 2.75576H76.0612V0.214355H59.586L56.7089 3.09409Z" fill="#F1FDD1"/>
<path d="M3.87408 9.07827H16.9917L14.3858 11.6842H4.45003V16H0V2.87715L2.87715 0H19.3498V2.5414H3.83534L2.78934 3.5874V7.99353L3.87408 9.07827Z" fill="#F1FDD1"/>
<path d="M57.0782 0.35639L53.9815 3.45307C53.9815 3.45307 52.3234 5.10602 52.1865 5.24548L51.9748 5.45727C51.8301 5.6019 51.6803 5.7517 51.5254 5.90666L50.5388 6.89326C50.3657 7.0663 50.1901 7.24193 50.0093 7.42272C49.8311 7.60093 49.6477 7.78172 49.4644 7.96768L41.4321 15.9999H38.449V2.60336H36.6334C36.6334 2.60336 35.5564 2.48972 34.7273 3.31619L22.1366 15.907L18.9805 15.9018C18.9805 15.9018 32.0955 2.78673 33.2965 1.58577C34.4975 0.3848 35.4918 0.35639 36.6695 0.35639H40.8096V13.2519L52.5455 1.51603C53.855 0.206592 54.9165 0.35639 55.8256 0.35639H57.0782Z" fill="#F1FDD1"/>
<path d="M31.2509 0.454609H29.8046L29.7994 0.452026H28.1L27.0127 1.53677C26.9636 1.58326 26.9145 1.62975 26.8655 1.67882C25.6645 2.87979 12.5494 15.9949 12.5494 15.9949H14.0009C14.0009 15.9949 14.0035 15.9974 14.0061 15.9974H15.7055L16.6327 15.0728C16.6766 15.0289 16.718 14.985 16.7619 14.9411C16.7722 14.9334 16.7825 14.923 16.7929 14.9127C16.8032 14.9024 16.8161 14.892 16.829 14.8791C16.8652 14.8455 16.9013 14.8094 16.9401 14.7706L31.2561 0.454609H31.2509ZM27.3614 4.34419C27.4698 4.23572 27.568 4.13499 27.661 4.04459L27.3614 4.34419ZM27.7927 3.91288C27.8753 3.82765 27.9528 3.75275 28.0174 3.68818L27.7927 3.91288Z" fill="#F1FDD1"/>
</svg>
