<svg width="1243" height="400" viewBox="0 0 1243 400" fill="none" xmlns="http://www.w3.org/2000/svg">
<g filter="url(#filter0_i_312_7)">
<path d="M0.5 253.459C6.6107 249.005 12.7214 237.869 32.5812 245.664C52.441 253.459 53.9686 241.21 52.441 218.939C50.9133 196.667 86.0498 213.371 89.1052 206.69C92.1605 200.008 96.7435 167.715 105.91 167.715C113.242 167.715 115.076 175.881 115.076 179.964C118.64 188.13 127.908 202.013 136.463 192.213C147.157 179.964 145.629 139.876 163.961 149.898C182.293 159.92 194.515 176.623 196.042 167.715C197.57 158.806 206.736 120.945 214.375 119.831C222.013 118.718 249.511 181.077 258.677 161.033C267.843 140.989 290.758 117.604 316.729 126.513C342.699 135.421 351.865 158.806 357.976 163.26C364.087 167.715 391.585 191.1 408.389 185.532C425.194 179.964 449.637 151.011 469.496 153.238C489.356 155.466 507.688 187.759 532.131 189.986C556.574 192.213 558.102 198.895 576.434 204.462C594.766 210.03 591.71 213.371 611.57 208.917C631.43 204.462 643.651 208.917 652.817 208.917C661.983 208.917 661.983 214.484 675.732 217.825C689.482 221.166 694.065 226.734 701.703 222.279C709.341 217.825 720.035 213.371 727.673 208.917C735.312 204.462 758.227 208.917 762.81 208.917C767.393 208.917 791.836 206.69 793.363 189.986C794.891 173.283 828.5 143.216 836.138 132.081C843.777 120.945 843.777 106.469 857.526 105.355C871.275 104.242 886.552 113.15 897.245 115.377C907.939 117.604 903.356 103.128 917.105 93.1059C930.854 83.0838 946.131 73.0617 958.352 75.2888C970.574 77.516 987.378 102.014 996.544 108.696C1005.71 115.377 1036.26 155.466 1065.29 132.081C1094.32 108.696 1105.01 71.9482 1108.06 66.3803C1111.12 60.8125 1108.06 38.5412 1127.92 37.4277C1147.78 36.3141 1150.84 40.7683 1172.23 34.087C1193.04 27.5856 1212.4 15.8126 1221.88 10.053L1222.64 9.58854C1229.97 5.13428 1238.94 1.79359 1242.5 0.680023V353.68H0.5V253.459Z" fill="url(#paint0_linear_312_7)"/>
</g>
<path d="M1222.64 9.58854C1229.97 5.13428 1238.94 1.79359 1242.5 0.680023V353.68H0.5V253.459C6.6107 249.005 12.7214 237.869 32.5812 245.664C52.441 253.459 53.9686 241.21 52.441 218.939C50.9133 196.667 86.0498 213.371 89.1052 206.69C92.1605 200.008 96.7435 167.715 105.91 167.715C113.242 167.715 115.076 175.881 115.076 179.964C118.64 188.13 127.908 202.013 136.463 192.213C147.157 179.964 145.629 139.876 163.961 149.898C182.293 159.92 194.515 176.623 196.042 167.715C197.57 158.806 206.736 120.945 214.375 119.831C222.013 118.718 249.511 181.077 258.677 161.033C267.843 140.989 290.758 117.604 316.729 126.513C342.699 135.421 351.865 158.806 357.976 163.26C364.087 167.715 391.585 191.1 408.389 185.532C425.194 179.964 449.637 151.011 469.496 153.238C489.356 155.466 507.688 187.759 532.131 189.986C556.574 192.213 558.101 198.895 576.434 204.462C594.766 210.03 591.71 213.371 611.57 208.917C631.43 204.462 643.651 208.917 652.817 208.917C661.983 208.917 661.983 214.484 675.732 217.825C689.482 221.166 694.065 226.734 701.703 222.279C709.341 217.825 720.035 213.371 727.673 208.917C735.312 204.462 758.227 208.917 762.81 208.917C767.393 208.917 791.836 206.69 793.363 189.986C794.891 173.283 828.5 143.216 836.138 132.081C843.777 120.945 843.777 106.469 857.526 105.355C871.275 104.242 886.552 113.15 897.245 115.377C907.939 117.604 903.356 103.128 917.105 93.1059C930.854 83.0838 946.131 73.0617 958.352 75.2889C970.574 77.516 987.378 102.014 996.544 108.696C1005.71 115.377 1036.26 155.466 1065.29 132.081C1094.32 108.696 1105.01 71.9482 1108.06 66.3803C1111.12 60.8125 1108.06 38.5412 1127.92 37.4277C1147.78 36.3141 1150.84 40.7683 1172.23 34.087C1193.04 27.5856 1212.4 15.8126 1221.88 10.053M1222.64 9.58854L1221.88 10.053M1222.64 9.58854C1222.39 9.7386 1222.14 9.8935 1221.88 10.053" stroke="url(#paint1_linear_312_7)"/>
<g filter="url(#filter1_i_312_7)">
<path d="M0.5 341.597C26.375 332.815 37.0294 325.131 56.8162 324.033C76.6029 322.936 88.7794 335.011 102.478 329.522C116.176 324.033 108.566 324.033 128.353 324.033C148.14 324.033 186.191 326.229 213.588 316.349C240.985 306.469 250.118 294.394 285.125 297.687C320.132 300.981 324.699 308.665 342.963 303.176C361.228 297.687 382.537 275.733 420.588 292.199C458.64 308.665 469.294 330.62 507.346 336.109C545.397 341.597 554.529 331.718 572.794 324.033C591.059 316.349 607.801 303.176 656.507 303.176C705.213 303.176 758.485 311.958 784.36 324.033C810.235 336.109 805.669 356.966 846.765 340.5C887.86 324.033 887.86 318.545 895.471 310.86C903.081 303.176 927.434 308.665 928.956 316.349C930.478 324.033 932 325.131 936.566 328.424C956.353 324.033 956.353 321.838 960.919 316.349C965.485 310.86 970.052 303.176 976.14 303.176C982.228 303.176 991.36 309.763 1033.98 290.003C1076.6 270.244 1081.16 261.462 1114.65 261.462H1183.14H1231.85L1242.5 252.68V398.68H0.5V341.597Z" fill="url(#paint2_linear_312_7)"/>
</g>
<path d="M1114.65 261.462C1081.16 261.462 1076.6 270.244 1033.98 290.003C991.36 309.763 982.228 303.176 976.14 303.176C970.051 303.176 965.485 310.86 960.919 316.349C956.353 321.838 956.353 324.033 936.566 328.424C932 325.131 930.478 324.033 928.956 316.349C927.434 308.665 903.081 303.176 895.471 310.86C887.86 318.545 887.86 324.033 846.765 340.5C805.669 356.966 810.235 336.109 784.36 324.033C758.485 311.958 705.213 303.176 656.507 303.176C607.801 303.176 591.059 316.349 572.794 324.033C554.529 331.718 545.397 341.597 507.346 336.109C469.294 330.62 458.64 308.665 420.588 292.199C382.537 275.733 361.228 297.687 342.963 303.176C324.699 308.665 320.132 300.981 285.125 297.687C250.118 294.394 240.985 306.469 213.588 316.349C186.191 326.229 148.14 324.033 128.353 324.033C108.566 324.033 116.176 324.033 102.478 329.522C88.7794 335.011 76.6029 322.936 56.8162 324.033C37.0294 325.131 26.375 332.815 0.5 341.597V398.68H1242.5V252.68L1231.85 261.462M1114.65 261.462C1148.13 261.462 1163.35 261.462 1183.14 261.462M1114.65 261.462H1183.14M1183.14 261.462C1198.97 261.462 1222.21 261.462 1231.85 261.462M1183.14 261.462H1231.85" stroke="url(#paint3_linear_312_7)"/>
<defs>
<filter id="filter0_i_312_7" x="0" y="0" width="1243" height="358.18" filterUnits="userSpaceOnUse" color-interpolation-filters="sRGB">
<feFlood flood-opacity="0" result="BackgroundImageFix"/>
<feBlend mode="normal" in="SourceGraphic" in2="BackgroundImageFix" result="shape"/>
<feColorMatrix in="SourceAlpha" type="matrix" values="0 0 0 0 0 0 0 0 0 0 0 0 0 0 0 0 0 0 127 0" result="hardAlpha"/>
<feOffset dy="4"/>
<feGaussianBlur stdDeviation="2"/>
<feComposite in2="hardAlpha" operator="arithmetic" k2="-1" k3="1"/>
<feColorMatrix type="matrix" values="0 0 0 0 0 0 0 0 0 0 0 0 0 0 0 0 0 0 0.25 0"/>
<feBlend mode="normal" in2="shape" result="effect1_innerShadow_312_7"/>
</filter>
<filter id="filter1_i_312_7" x="0" y="251.62" width="1243" height="151.56" filterUnits="userSpaceOnUse" color-interpolation-filters="sRGB">
<feFlood flood-opacity="0" result="BackgroundImageFix"/>
<feBlend mode="normal" in="SourceGraphic" in2="BackgroundImageFix" result="shape"/>
<feColorMatrix in="SourceAlpha" type="matrix" values="0 0 0 0 0 0 0 0 0 0 0 0 0 0 0 0 0 0 127 0" result="hardAlpha"/>
<feOffset dy="4"/>
<feGaussianBlur stdDeviation="2"/>
<feComposite in2="hardAlpha" operator="arithmetic" k2="-1" k3="1"/>
<feColorMatrix type="matrix" values="0 0 0 0 0 0 0 0 0 0 0 0 0 0 0 0 0 0 0.25 0"/>
<feBlend mode="normal" in2="shape" result="effect1_innerShadow_312_7"/>
</filter>
<linearGradient id="paint0_linear_312_7" x1="621.5" y1="0.680023" x2="621.5" y2="353.68" gradientUnits="userSpaceOnUse">
<stop stop-color="#004126"/>
<stop offset="0.774038" stop-color="#000A06"/>
<stop offset="1"/>
</linearGradient>
<linearGradient id="paint1_linear_312_7" x1="621.5" y1="0.680023" x2="621.5" y2="353.68" gradientUnits="userSpaceOnUse">
<stop stop-color="#01DF83"/>
<stop offset="0.961538"/>
<stop offset="1"/>
</linearGradient>
<linearGradient id="paint2_linear_312_7" x1="621.5" y1="252.68" x2="621.5" y2="398.68" gradientUnits="userSpaceOnUse">
<stop stop-color="#383838"/>
<stop offset="1"/>
</linearGradient>
<linearGradient id="paint3_linear_312_7" x1="621.5" y1="252.68" x2="621.5" y2="398.68" gradientUnits="userSpaceOnUse">
<stop stop-color="#D9D9D9"/>
<stop offset="1"/>
</linearGradient>
</defs>
</svg>
