<svg width="586" height="535" viewBox="0 0 586 535" fill="none" xmlns="http://www.w3.org/2000/svg">
<circle cx="326.5" cy="126" r="3.5" fill="#D9D9D9"/>
<circle cx="326.5" cy="196.5" r="3.5" fill="#D9D9D9"/>
<circle cx="326.5" cy="267" r="3.5" fill="#D9D9D9"/>
<circle cx="326.5" cy="337.5" r="3.5" fill="#D9D9D9"/>
<circle cx="326.5" cy="408" r="3.5" fill="#D9D9D9"/>
<circle cx="326.5" cy="478.5" r="3.5" fill="#D9D9D9"/>
<circle cx="326.5" cy="56" r="3.5" fill="#D9D9D9"/>
<rect x="340" y="125" width="42" height="2" fill="#D9D9D9"/>
<rect x="340" y="195.5" width="42" height="2" fill="#D9D9D9"/>
<rect x="340" y="266" width="42" height="2" fill="#01DF83"/>
<rect x="340" y="336.5" width="42" height="2" fill="#D9D9D9"/>
<rect x="340" y="407" width="42" height="2" fill="#D9D9D9"/>
<rect x="340" y="477.5" width="42" height="2" fill="#D9D9D9"/>
<rect x="340" y="55" width="42" height="2" fill="#D9D9D9"/>
<rect x="326" y="182" width="42" height="2" transform="rotate(-90 326 182)" fill="#D9D9D9"/>
<rect x="326" y="252.5" width="42" height="2" transform="rotate(-90 326 252.5)" fill="#D9D9D9"/>
<rect x="326" y="323" width="42" height="2" transform="rotate(-90 326 323)" fill="#D9D9D9"/>
<rect x="326" y="393.5" width="42" height="2" transform="rotate(-90 326 393.5)" fill="#D9D9D9"/>
<rect x="326" y="464" width="42" height="2" transform="rotate(-90 326 464)" fill="#D9D9D9"/>
<rect x="326" y="534.5" width="42" height="2" transform="rotate(-90 326 534.5)" fill="#D9D9D9"/>
<rect x="326" y="112" width="42" height="2" transform="rotate(-90 326 112)" fill="#D9D9D9"/>
<rect x="326" y="42" width="42" height="2" transform="rotate(-90 326 42)" fill="#D9D9D9"/>
<circle cx="394.5" cy="126" r="3.5" fill="#D9D9D9"/>
<circle cx="394.5" cy="196.5" r="3.5" fill="#D9D9D9"/>
<circle cx="394.5" cy="267" r="3.5" fill="#01DF83"/>
<circle cx="394.5" cy="337.5" r="3.5" fill="#D9D9D9"/>
<circle cx="394.5" cy="408" r="3.5" fill="#D9D9D9"/>
<circle cx="394.5" cy="478.5" r="3.5" fill="#D9D9D9"/>
<circle cx="394.5" cy="56" r="3.5" fill="#D9D9D9"/>
<rect x="407" y="125" width="42" height="2" fill="#01DF83"/>
<rect x="407" y="195.5" width="42" height="2" fill="#D9D9D9"/>
<rect x="407" y="266" width="42" height="2" fill="#01DF83"/>
<rect x="407" y="336.5" width="42" height="2" fill="#D9D9D9"/>
<rect x="407" y="407" width="42" height="2" fill="#01DF83"/>
<rect x="407" y="477.5" width="42" height="2" fill="#D9D9D9"/>
<rect x="407" y="55" width="42" height="2" fill="#D9D9D9"/>
<rect x="394" y="182" width="42" height="2" transform="rotate(-90 394 182)" fill="#D9D9D9"/>
<rect x="394" y="252.5" width="42" height="2" transform="rotate(-90 394 252.5)" fill="#01DF83"/>
<rect x="394" y="323" width="42" height="2" transform="rotate(-90 394 323)" fill="#01DF83"/>
<rect x="394" y="393.5" width="42" height="2" transform="rotate(-90 394 393.5)" fill="#D9D9D9"/>
<rect x="394" y="464" width="42" height="2" transform="rotate(-90 394 464)" fill="#D9D9D9"/>
<rect x="394" y="534.5" width="42" height="2" transform="rotate(-90 394 534.5)" fill="#D9D9D9"/>
<rect x="394" y="112" width="42" height="2" transform="rotate(-90 394 112)" fill="#D9D9D9"/>
<rect x="394" y="42" width="42" height="2" transform="rotate(-90 394 42)" fill="#D9D9D9"/>
<circle cx="462.5" cy="126" r="3.5" fill="#01DF83"/>
<circle cx="462.5" cy="196.5" r="3.5" fill="#D9D9D9"/>
<circle cx="462.5" cy="267" r="3.5" fill="#D9D9D9"/>
<circle cx="462.5" cy="337.5" r="3.5" fill="#D9D9D9"/>
<circle cx="462.5" cy="408" r="3.5" fill="#01DF83"/>
<circle cx="462.5" cy="478.5" r="3.5" fill="#D9D9D9"/>
<circle cx="462.5" cy="56" r="3.5" fill="#D9D9D9"/>
<rect x="476" y="125" width="42" height="2" fill="#01DF83"/>
<rect x="476" y="195.5" width="42" height="2" fill="#D9D9D9"/>
<rect x="476" y="266" width="42" height="2" fill="#D9D9D9"/>
<rect x="476" y="336.5" width="42" height="2" fill="#D9D9D9"/>
<rect x="476" y="407" width="42" height="2" fill="#01DF83"/>
<rect x="476" y="477.5" width="42" height="2" fill="#D9D9D9"/>
<rect x="476" y="55" width="42" height="2" fill="#D9D9D9"/>
<rect x="462" y="182" width="42" height="2" transform="rotate(-90 462 182)" fill="#01DF83"/>
<rect x="462" y="252.5" width="42" height="2" transform="rotate(-90 462 252.5)" fill="#D9D9D9"/>
<rect x="462" y="323" width="42" height="2" transform="rotate(-90 462 323)" fill="#D9D9D9"/>
<rect x="462" y="393.5" width="42" height="2" transform="rotate(-90 462 393.5)" fill="#01DF83"/>
<rect x="462" y="464" width="42" height="2" transform="rotate(-90 462 464)" fill="#01DF83"/>
<rect x="462" y="534.5" width="42" height="2" transform="rotate(-90 462 534.5)" fill="#D9D9D9"/>
<rect x="462" y="112" width="42" height="2" transform="rotate(-90 462 112)" fill="#01DF83"/>
<rect x="462" y="42" width="42" height="2" transform="rotate(-90 462 42)" fill="#D9D9D9"/>
<circle cx="530.5" cy="126" r="3.5" fill="#D9D9D9"/>
<circle cx="530.5" cy="196.5" r="3.5" fill="#D9D9D9"/>
<circle cx="530.5" cy="267" r="3.5" fill="#D9D9D9"/>
<circle cx="530.5" cy="337.5" r="3.5" fill="#D9D9D9"/>
<circle cx="530.5" cy="408" r="3.5" fill="#D9D9D9"/>
<circle cx="530.5" cy="478.5" r="3.5" fill="#D9D9D9"/>
<circle cx="530.5" cy="56" r="3.5" fill="#D9D9D9"/>
<rect x="544" y="125" width="42" height="2" fill="#D9D9D9"/>
<rect x="544" y="195.5" width="42" height="2" fill="#D9D9D9"/>
<rect x="544" y="266" width="42" height="2" fill="#D9D9D9"/>
<rect x="544" y="336.5" width="42" height="2" fill="#D9D9D9"/>
<rect x="544" y="407" width="42" height="2" fill="#D9D9D9"/>
<rect x="544" y="477.5" width="42" height="2" fill="#D9D9D9"/>
<rect x="544" y="55" width="42" height="2" fill="#D9D9D9"/>
<rect x="530" y="182" width="42" height="2" transform="rotate(-90 530 182)" fill="#D9D9D9"/>
<rect x="530" y="252.5" width="42" height="2" transform="rotate(-90 530 252.5)" fill="#D9D9D9"/>
<rect x="530" y="323" width="42" height="2" transform="rotate(-90 530 323)" fill="#D9D9D9"/>
<rect x="530" y="393.5" width="42" height="2" transform="rotate(-90 530 393.5)" fill="#D9D9D9"/>
<rect x="530" y="464" width="42" height="2" transform="rotate(-90 530 464)" fill="#D9D9D9"/>
<rect x="530" y="534.5" width="42" height="2" transform="rotate(-90 530 534.5)" fill="#D9D9D9"/>
<rect x="530" y="112" width="42" height="2" transform="rotate(-90 530 112)" fill="#D9D9D9"/>
<rect x="530" y="42" width="42" height="2" transform="rotate(-90 530 42)" fill="#D9D9D9"/>
<circle cx="258.5" cy="126" r="3.5" fill="#01DF83"/>
<circle cx="258.5" cy="196.5" r="3.5" fill="#D9D9D9"/>
<circle cx="258.5" cy="267" r="3.5" fill="#D9D9D9"/>
<circle cx="258.5" cy="337.5" r="3.5" fill="#D9D9D9"/>
<circle cx="258.5" cy="408" r="3.5" fill="#D9D9D9"/>
<circle cx="258.5" cy="478.5" r="3.5" fill="#D9D9D9"/>
<circle cx="258.5" cy="56" r="3.5" fill="#D9D9D9"/>
<rect x="272" y="125" width="42" height="2" fill="#01DF83"/>
<rect x="272" y="195.5" width="42" height="2" fill="#D9D9D9"/>
<rect x="272" y="266" width="42" height="2" fill="#D9D9D9"/>
<rect x="272" y="336.5" width="42" height="2" fill="#D9D9D9"/>
<rect x="272" y="407" width="42" height="2" fill="#D9D9D9"/>
<rect x="272" y="477.5" width="42" height="2" fill="#D9D9D9"/>
<rect x="272" y="55" width="42" height="2" fill="#D9D9D9"/>
<rect x="258" y="182" width="42" height="2" transform="rotate(-90 258 182)" fill="#01DF83"/>
<rect x="258" y="252.5" width="42" height="2" transform="rotate(-90 258 252.5)" fill="#D9D9D9"/>
<rect x="258" y="323" width="42" height="2" transform="rotate(-90 258 323)" fill="#D9D9D9"/>
<rect x="258" y="393.5" width="42" height="2" transform="rotate(-90 258 393.5)" fill="#D9D9D9"/>
<rect x="258" y="464" width="42" height="2" transform="rotate(-90 258 464)" fill="#D9D9D9"/>
<rect x="258" y="534.5" width="42" height="2" transform="rotate(-90 258 534.5)" fill="#D9D9D9"/>
<rect x="258" y="112" width="42" height="2" transform="rotate(-90 258 112)" fill="#01DF83"/>
<rect x="258" y="42" width="42" height="2" transform="rotate(-90 258 42)" fill="#D9D9D9"/>
<circle cx="190.5" cy="126" r="3.5" fill="#D9D9D9"/>
<circle cx="190.5" cy="196.5" r="3.5" fill="#D9D9D9"/>
<circle cx="190.5" cy="267" r="3.5" fill="#D9D9D9"/>
<circle cx="190.5" cy="337.5" r="3.5" fill="#D9D9D9"/>
<circle cx="190.5" cy="408" r="3.5" fill="#D9D9D9"/>
<circle cx="190.5" cy="478.5" r="3.5" fill="#D9D9D9"/>
<circle cx="190.5" cy="56" r="3.5" fill="#D9D9D9"/>
<rect x="204" y="125" width="42" height="2" fill="#01DF83"/>
<rect x="204" y="195.5" width="42" height="2" fill="#D9D9D9"/>
<rect x="204" y="266" width="42" height="2" fill="#D9D9D9"/>
<rect x="204" y="336.5" width="42" height="2" fill="#D9D9D9"/>
<rect x="204" y="407" width="42" height="2" fill="#D9D9D9"/>
<rect x="204" y="477.5" width="42" height="2" fill="#D9D9D9"/>
<rect x="204" y="55" width="42" height="2" fill="#D9D9D9"/>
<rect x="190" y="182" width="42" height="2" transform="rotate(-90 190 182)" fill="#D9D9D9"/>
<rect x="190" y="252.5" width="42" height="2" transform="rotate(-90 190 252.5)" fill="#D9D9D9"/>
<rect x="190" y="323" width="42" height="2" transform="rotate(-90 190 323)" fill="#D9D9D9"/>
<rect x="190" y="393.5" width="42" height="2" transform="rotate(-90 190 393.5)" fill="#D9D9D9"/>
<rect x="190" y="464" width="42" height="2" transform="rotate(-90 190 464)" fill="#D9D9D9"/>
<rect x="190" y="534.5" width="42" height="2" transform="rotate(-90 190 534.5)" fill="#D9D9D9"/>
<rect x="190" y="112" width="42" height="2" transform="rotate(-90 190 112)" fill="#D9D9D9"/>
<rect x="190" y="42" width="42" height="2" transform="rotate(-90 190 42)" fill="#D9D9D9"/>
<circle cx="122.5" cy="126" r="3.5" fill="#D9D9D9"/>
<circle cx="122.5" cy="196.5" r="3.5" fill="#D9D9D9"/>
<circle cx="122.5" cy="267" r="3.5" fill="#D9D9D9"/>
<circle cx="122.5" cy="408" r="3.5" fill="#D9D9D9"/>
<circle cx="122.5" cy="478.5" r="3.5" fill="#D9D9D9"/>
<circle cx="122.5" cy="56" r="3.5" fill="#D9D9D9"/>
<rect x="136" y="125" width="42" height="2" fill="#D9D9D9"/>
<rect x="136" y="195.5" width="42" height="2" fill="#D9D9D9"/>
<rect x="136" y="266" width="42" height="2" fill="#D9D9D9"/>
<rect x="136" y="407" width="42" height="2" fill="#D9D9D9"/>
<rect x="136" y="477.5" width="42" height="2" fill="#D9D9D9"/>
<rect x="136" y="55" width="42" height="2" fill="#D9D9D9"/>
<rect x="122" y="182" width="42" height="2" transform="rotate(-90 122 182)" fill="#D9D9D9"/>
<rect x="122" y="252.5" width="42" height="2" transform="rotate(-90 122 252.5)" fill="#D9D9D9"/>
<rect x="122" y="464" width="42" height="2" transform="rotate(-90 122 464)" fill="#D9D9D9"/>
<rect x="122" y="534.5" width="42" height="2" transform="rotate(-90 122 534.5)" fill="#D9D9D9"/>
<rect x="122" y="112" width="42" height="2" transform="rotate(-90 122 112)" fill="#D9D9D9"/>
<rect x="122" y="42" width="42" height="2" transform="rotate(-90 122 42)" fill="#D9D9D9"/>
<circle cx="54.5" cy="126" r="3.5" fill="#D9D9D9"/>
<circle cx="54.5" cy="478.5" r="3.5" fill="#D9D9D9"/>
<circle cx="54.5" cy="56" r="3.5" fill="#D9D9D9"/>
<rect x="68" y="125" width="42" height="2" fill="#D9D9D9"/>
<rect x="68" y="477.5" width="42" height="2" fill="#D9D9D9"/>
<rect x="68" y="55" width="42" height="2" fill="#D9D9D9"/>
<rect y="55" width="42" height="2" fill="#D9D9D9"/>
<rect x="54" y="534.5" width="42" height="2" transform="rotate(-90 54 534.5)" fill="#D9D9D9"/>
<rect x="54" y="112" width="42" height="2" transform="rotate(-90 54 112)" fill="#D9D9D9"/>
<rect x="54" y="42" width="42" height="2" transform="rotate(-90 54 42)" fill="#D9D9D9"/>
</svg>
